<svg xmlns="http://www.w3.org/2000/svg" viewBox="0 0 800 800">
  <!-- Chef hat outline in white -->
  <path d="M200 300 Q200 200 300 150 Q350 120 400 120 Q450 120 500 150 Q600 200 600 300 L600 400 Q600 450 550 475 L550 500 L250 500 L250 475 Q200 450 200 400 Z" 
        fill="white" stroke="white" stroke-width="8"/>
  
  <!-- Fork in white -->
  <rect x="370" y="200" width="15" height="100" fill="white"/>
  <rect x="355" y="200" width="15" height="80" fill="white"/>
  <rect x="415" y="200" width="15" height="80" fill="white"/>
  <rect x="430" y="200" width="15" height="100" fill="white"/>
  
  <!-- Fork handle in white -->
  <rect x="370" y="300" width="60" height="150" fill="white"/>
  
  <!-- Banner in white -->
  <rect x="137" y="470" width="526" height="100" rx="10" fill="white"/>
  
  <!-- RECIPES text in red -->
  <text x="400" y="540" text-anchor="middle" font-family="Arial, sans-serif" font-size="80" font-weight="bold" fill="#E53E3E">RECIPES</text>
</svg>